<svg width="500" height="162" viewBox="0,0,500,162" data-chart-id="test-uuid" xmlns="http://www.w3.org/2000/svg">
    <g>
        <g data-stack="0">
            <rect x="174.66666666666666" y="22.066666666666666" width="248.07257333333334" height="16.533333333333335" data-key="2023 – 2024" class="chart-cell chart-cell__series-0 chart-cell__group-previous" />
            <rect x="174.66666666666666" y="42.733333333333334" width="225.64590666666666" height="16.533333333333335" data-key="2024 – 2025" class="chart-cell chart-cell__series-0 chart-cell__group-current" />
            <rect x="174.66666666666666" y="63.400000000000006" width="203.21923999999999" height="16.533333333333335" data-key="2025 – 2026" class="chart-cell chart-cell__series-0 chart-cell__group-forecast" />
        </g>
    </g>
    <g>
        <text x="430.73924" y="30.333333333333336" dy="0.35em" class="chart-label chart-label__series-0">£22k</text>
        <text x="408.3125733333333" y="51" dy="0.35em" class="chart-label chart-label__series-0">£20k</text>
        <text x="385.88590666666664" y="71.66666666666667" dy="0.35em" class="chart-label chart-label__series-0">£18k</text>
    </g>
    <g class="chart-axis chart-axis__x" transform="translate(-2,82)">
        <path class="domain" stroke="currentColor" d="M175.16666666666666,1V0.5H455.5V1" />
        <g class="chart-tick" transform="translate(175.16666666666666,0)">
            <line y2="6" x1="1" x2="1" />
            <text y="9" dy="0.71em" x1="1" x2="1">£0</text>
        </g>
        <g class="chart-tick" transform="translate(231.23333333333332,0)">
            <line y2="6" x1="1" x2="1" />
            <text y="9" dy="0.71em" x1="1" x2="1">£5k</text>
        </g>
        <g class="chart-tick" transform="translate(287.3,0)">
            <line y2="6" x1="1" x2="1" />
            <text y="9" dy="0.71em" x1="1" x2="1">£10k</text>
        </g>
        <g class="chart-tick" transform="translate(343.3666666666667,0)">
            <line y2="6" x1="1" x2="1" />
            <text y="9" dy="0.71em" x1="1" x2="1">£15k</text>
        </g>
        <g class="chart-tick" transform="translate(399.43333333333334,0)">
            <line y2="6" x1="1" x2="1" />
            <text y="9" dy="0.71em" x1="1" x2="1">£20k</text>
        </g>
        <g class="chart-tick" transform="translate(455.5,0)">
            <line y2="6" x1="1" x2="1" />
            <text y="9" dy="0.71em" x1="1" x2="1">£25k</text>
        </g>
    </g>
    <g class="chart-axis chart-axis__y" transform="translate(171.66666666666666,0)">
        <path class="domain" stroke="currentColor" d="M0,20.5H0.5V82.5H0" transform="translate(0,0)" />
        <g class="chart-tick" transform="translate(0,30.333333333333336)">
            <line x2="-6" />
            <text x="-9" dy="0.32em" class="text-tick">
                <tspan>2023 </tspan>
                <tspan>– </tspan>
                <tspan>2024</tspan>
            </text>
        </g>
        <g class="chart-tick" transform="translate(0,51)">
            <line x2="-6" />
            <text x="-9" dy="0.32em" class="text-tick">
                <tspan>2024 </tspan>
                <tspan>– </tspan>
                <tspan>2025</tspan>
            </text>
        </g>
        <g class="chart-tick" transform="translate(0,71.66666666666667)">
            <line x2="-6" />
            <text x="-9" dy="0.32em" class="text-tick">
                <tspan>2025 </tspan>
                <tspan>– </tspan>
                <tspan>2026</tspan>
            </text>
        </g>
    </g>
    <g transform="translate(153.36666666666667,107)">
        <rect class="chart-cell chart-legend-previous" height="8.266666666666667" width="8.266666666666667" x="0" y="0" />
        <text x="13.266666666666667" y="0" dy="8.266666666666667">Previous</text>,<rect class="chart-cell chart-legend-current" height="8.266666666666667" width="8.266666666666667" x="193.26666666666668" y="0" /><text x="206.53333333333336" y="0" dy="8.266666666666667">Current</text>,<rect class="chart-cell chart-legend-forecast" height="8.266666666666667" width="8.266666666666667" x="0" y="25" /><text x="13.266666666666667" y="25" dy="8.266666666666667">Forecast</text></g>
</svg>
